# xmcd
#
# Track frame offsets:
#	150
#	12126
#	28027
#	47895
#	63291
#	79073
#	95273
#	107340
#	122092
#	135585
#	151559
#	169197
#	184808
#	198414
#	214879
#	232009
#	249967
#	259400
#	272702
#
# Disc length: 3901 seconds
#
# Revision: 1
# Processed by: cddbd v1.5.2PL0 Copyright (c) Steve Scherf et al.
# Submitted via: audiograbber 1.83.01
#
DISCID=fc0f3b13
DTITLE=Texas Twister  - Texas Twister vol 04 Texas Twister Radio
DYEAR=2000
DGENRE=Country
TTITLE0=Somthing This Gay Won´t Do  - Paul Mateki
TTITLE1=If You  - Bente´ Boe
TTITLE2=Don´t Run Away  - Dr Fry´s Texas Medicine Band
TTITLE3=You´re Everything To Me - Shirley Frederickson
TTITLE4=Used Clothing  - Magic Music
TTITLE5=Mirror Mirror - Erin Hay
TTITLE6=Elvis Appears On The Ed Sullivan Show  - The Krueger Band
TTITLE7=I´ll Never Ever Make You Cry  - Tom Stanko
TTITLE8=Freedom  - Poker Alice
TTITLE9=Out For The Weekend  - David Thomason
TTITLE10=The Reason  - Dr Fry´s Texas Medicine Band
TTITLE11=The Chill  - Roger Yeardley
TTITLE12=The Hills North Of San Antone  - Gail Garland
TTITLE13=Until The World Explodes  - The Kruger Band
TTITLE14=Even The Rocks Will Cry Out  - Phil Coley
TTITLE15=Luckey 7, From The House Of Blue Lights - Tom Stanko
TTITLE16=Your Good Girl´s Gonna Go Bad - Erin Hay
TTITLE17=Radian Blue Horizon  - Magic Music
TTITLE18=Scarlet Ribbon  - Elton Houck With Jo Bing
EXTD=
EXTT0=
EXTT1=
EXTT2=
EXTT3=
EXTT4=
EXTT5=
EXTT6=
EXTT7=
EXTT8=
EXTT9=
EXTT10=
EXTT11=
EXTT12=
EXTT13=
EXTT14=
EXTT15=
EXTT16=
EXTT17=
EXTT18=
PLAYORDER=
